<svg width="400" height="220" xmlns="http://www.w3.org/2000/svg" xmlns:xlink="http://www.w3.org/1999/xlink" overflow="hidden"><g><rect x="0" y="0" width="1280" height="720" fill="#FFFFFF"/><text font-family="Cascadia Code,Cascadia Code_MSFontService,sans-serif" font-weight="700" font-size="24" transform="translate(59.0124 87)">F</text><text font-family="Cascadia Code,Cascadia Code_MSFontService,sans-serif" font-weight="700" font-size="24" transform="translate(145.237 87)">0</text><text font-family="Cascadia Code,Cascadia Code_MSFontService,sans-serif" font-weight="700" font-size="24" transform="translate(231.461 88)">5</text><text fill="#5B9BD5" font-family="Cascadia Code,Cascadia Code_MSFontService,sans-serif" font-weight="400" font-size="15" transform="translate(226.916 119)">16</text><text fill="#5B9BD5" font-family="Cascadia Code,Cascadia Code_MSFontService,sans-serif" font-weight="400" font-size="10" transform="translate(244.249 115)">0</text><text fill="#5B9BD5" font-family="Cascadia Code,Cascadia Code_MSFontService,sans-serif" font-weight="400" font-size="15" transform="translate(140.786 119)">16</text><text fill="#5B9BD5" font-family="Cascadia Code,Cascadia Code_MSFontService,sans-serif" font-weight="400" font-size="10" transform="translate(158.12 115)">1</text><text fill="#5B9BD5" font-family="Cascadia Code,Cascadia Code_MSFontService,sans-serif" font-weight="400" font-size="15" transform="translate(56.4139 119)">16</text><text fill="#5B9BD5" font-family="Cascadia Code,Cascadia Code_MSFontService,sans-serif" font-weight="400" font-size="10" transform="translate(73.7472 115)">2</text><path d="M131 98 173.317 98.0001" stroke="#000000" stroke-width="4" stroke-miterlimit="8" fill="none" fill-rule="evenodd"/><rect x="120.5" y="14.5001" width="66" height="36" stroke="#000000" stroke-linejoin="round" stroke-miterlimit="10" stroke-dasharray="4 3" fill="none"/><text font-family="Calibri,Calibri_MSFontService,sans-serif" font-weight="400" font-size="21" transform="translate(130.017 39)">F05</text><text font-family="Calibri,Calibri_MSFontService,sans-serif" font-weight="400" font-size="14" transform="translate(161.517 43)">16</text><path d="M44 98 86.317 98.0001" stroke="#000000" stroke-width="4" stroke-miterlimit="8" fill="none" fill-rule="evenodd"/><path d="M216 98 258.317 98.0001" stroke="#000000" stroke-width="4" stroke-miterlimit="8" fill="none" fill-rule="evenodd"/><text font-family="Cascadia Code,Cascadia Code_MSFontService,sans-serif" font-weight="400" font-size="19" transform="translate(23.1755 153)">F x</text><text fill="#5B9BD5" font-family="Cascadia Code,Cascadia Code_MSFontService,sans-serif" font-weight="400" font-size="19" transform="translate(67.1755 153)">256</text><text font-family="Cascadia Code,Cascadia Code_MSFontService,sans-serif" font-weight="400" font-size="19" transform="translate(120.445 153)">0</text><text font-family="Cascadia Code,Cascadia Code_MSFontService,sans-serif" font-weight="400" font-size="19" transform="translate(142.445 153)">x</text><text fill="#5B9BD5" font-family="Cascadia Code,Cascadia Code_MSFontService,sans-serif" font-weight="400" font-size="19" transform="translate(164.445 153)">16</text><text font-family="Cascadia Code,Cascadia Code_MSFontService,sans-serif" font-weight="400" font-size="19" transform="translate(217.681 153)">5</text><text font-family="Cascadia Code,Cascadia Code_MSFontService,sans-serif" font-weight="400" font-size="19" transform="translate(239.681 153)">x</text><text fill="#5B9BD5" font-family="Cascadia Code,Cascadia Code_MSFontService,sans-serif" font-weight="400" font-size="19" transform="translate(261.681 153)">1</text><text font-family="Cascadia Code,Cascadia Code_MSFontService,sans-serif" font-weight="400" font-size="19" transform="translate(39.6755 205)">3840</text><text font-family="Cascadia Code,Cascadia Code_MSFontService,sans-serif" font-weight="400" font-size="19" transform="translate(147.945 204)">0</text><text font-family="Cascadia Code,Cascadia Code_MSFontService,sans-serif" font-weight="400" font-size="19" transform="translate(239.681 205)">5</text><path d="M0.333324-0.00249945 0.430212 12.9183-0.236436 12.9233-0.333324 0.00249945ZM4.08678 11.5575 0.146877 19.5873-3.913 11.6175Z" transform="matrix(-1 0 0 1 62.6469 161.5)"/><path d="M0.333324-0.00249945 0.430212 12.9183-0.236436 12.9233-0.333324 0.00249945ZM4.08678 11.5575 0.146877 19.5873-3.913 11.6175Z" transform="matrix(-1 0 0 1 153.647 161.5)"/><path d="M0.333324-0.00249945 0.430212 12.9183-0.236436 12.9233-0.333324 0.00249945ZM4.08678 11.5575 0.146877 19.5873-3.913 11.6175Z" transform="matrix(-1 0 0 1 245.647 162.5)"/><text font-family="Cascadia Code,Cascadia Code_MSFontService,sans-serif" font-weight="400" font-size="19" transform="translate(101.1 205)">+</text><text font-family="Cascadia Code,Cascadia Code_MSFontService,sans-serif" font-weight="400" font-size="19" transform="translate(198.378 205)">+</text><text font-family="Cascadia Code,Cascadia Code_MSFontService,sans-serif" font-weight="400" font-size="19" transform="translate(297.052 205)">=</text><text font-family="Cascadia Code,Cascadia Code_MSFontService,sans-serif" font-weight="700" font-size="19" transform="translate(319.052 205)">3845</text><text font-family="Cascadia Code,Cascadia Code_MSFontService,sans-serif" font-weight="700" font-size="12" transform="translate(363.052 209)">10</text></g></svg>