<svg width="420" height="225" xmlns="http://www.w3.org/2000/svg" xmlns:xlink="http://www.w3.org/1999/xlink" overflow="hidden"><g><rect x="0" y="0" width="1280" height="720" fill="#FFFFFF"/><text font-family="Cascadia Code,Cascadia Code_MSFontService,sans-serif" font-weight="700" font-size="24" transform="translate(56.5837 39)">1</text><text font-family="Cascadia Code,Cascadia Code_MSFontService,sans-serif" font-weight="700" font-size="24" transform="translate(163.688 39)">2</text><text font-family="Cascadia Code,Cascadia Code_MSFontService,sans-serif" font-weight="700" font-size="24" transform="translate(270.782 41)">3</text><text fill="#5B9BD5" font-family="Calibri,Calibri_MSFontService,sans-serif" font-style="italic" font-weight="400" font-size="15" transform="translate(253.738 72)">1s place</text><text fill="#5B9BD5" font-family="Calibri,Calibri_MSFontService,sans-serif" font-style="italic" font-weight="400" font-size="15" transform="translate(142.988 71)">10s place</text><text fill="#5B9BD5" font-family="Calibri,Calibri_MSFontService,sans-serif" font-style="italic" font-weight="400" font-size="15" transform="translate(33.9852 71)">100s place</text><path d="M149 50 191.317 50.0001" stroke="#000000" stroke-width="4" stroke-miterlimit="8" fill="none" fill-rule="evenodd"/><path d="M42 50 84.317 50.0001" stroke="#000000" stroke-width="4" stroke-miterlimit="8" fill="none" fill-rule="evenodd"/><path d="M256 51 298.317 51.0001" stroke="#000000" stroke-width="4" stroke-miterlimit="8" fill="none" fill-rule="evenodd"/><path d="M0.333324-0.00249945 0.430212 12.9183-0.236436 12.9233-0.333324 0.00249945ZM4.08678 11.5575 0.146877 19.5873-3.913 11.6175Z" transform="matrix(-1 0 0 1 63.6469 86.5001)"/><path d="M0.333324-0.00249945 0.430212 12.9183-0.236436 12.9233-0.333324 0.00249945ZM4.08678 11.5575 0.146877 19.5873-3.913 11.6175Z" transform="matrix(-1 0 0 1 170.647 87.5001)"/><path d="M0.333324-0.00249945 0.430212 12.9183-0.236436 12.9233-0.333324 0.00249945ZM4.08678 11.5575 0.146877 19.5873-3.913 11.6175Z" transform="matrix(-1 0 0 1 278.647 87.5001)"/><text font-family="Cascadia Code,Cascadia Code_MSFontService,sans-serif" font-weight="400" font-size="19" transform="translate(23.1755 137)">1 x</text><text fill="#5B9BD5" font-family="Cascadia Code,Cascadia Code_MSFontService,sans-serif" font-weight="400" font-size="19" transform="translate(67.1755 137)">10</text><text fill="#5B9BD5" font-family="Cascadia Code,Cascadia Code_MSFontService,sans-serif" font-weight="400" font-size="19" transform="translate(89.1755 137)">0</text><text font-family="Cascadia Code,Cascadia Code_MSFontService,sans-serif" font-weight="400" font-size="19" transform="translate(139.391 137)">2 x</text><text fill="#5B9BD5" font-family="Cascadia Code,Cascadia Code_MSFontService,sans-serif" font-weight="400" font-size="19" transform="translate(183.391 137)">10</text><text font-family="Cascadia Code,Cascadia Code_MSFontService,sans-serif" font-weight="400" font-size="19" transform="translate(254.578 137)">3 x</text><text fill="#5B9BD5" font-family="Cascadia Code,Cascadia Code_MSFontService,sans-serif" font-weight="400" font-size="19" transform="translate(298.578 137)">1</text><path d="M0.333324-0.00249945 0.430212 12.9183-0.236436 12.9233-0.333324 0.00249945ZM4.08678 11.5575 0.146877 19.5873-3.913 11.6175Z" transform="matrix(-1 0 0 1 63.6469 156.5)"/><path d="M0.333324-0.00249945 0.430212 12.9183-0.236436 12.9233-0.333324 0.00249945ZM4.08678 11.5575 0.146877 19.5873-3.913 11.6175Z" transform="matrix(-1 0 0 1 169.647 157.5)"/><path d="M0.333324-0.00249945 0.430212 12.9183-0.236436 12.9233-0.333324 0.00249945ZM4.08678 11.5575 0.146877 19.5873-3.913 11.6175Z" transform="matrix(-1 0 0 1 278.647 157.5)"/><text font-family="Cascadia Code,Cascadia Code_MSFontService,sans-serif" font-weight="400" font-size="19" transform="translate(45.1755 208)">100</text><text font-family="Cascadia Code,Cascadia Code_MSFontService,sans-serif" font-weight="400" font-size="19" transform="translate(161.391 207)">20</text><text font-family="Cascadia Code,Cascadia Code_MSFontService,sans-serif" font-weight="400" font-size="19" transform="translate(276.578 207)">3</text><text font-family="Cascadia Code,Cascadia Code_MSFontService,sans-serif" font-weight="400" font-size="19" transform="translate(117.851 207)">+</text><text font-family="Cascadia Code,Cascadia Code_MSFontService,sans-serif" font-weight="400" font-size="19" transform="translate(229.877 207)">+</text><text font-family="Cascadia Code,Cascadia Code_MSFontService,sans-serif" font-weight="400" font-size="19" transform="translate(345.644 208)">=</text><text font-family="Cascadia Code,Cascadia Code_MSFontService,sans-serif" font-weight="700" font-size="19" transform="translate(367.644 208)">123</text></g></svg>