<svg width="435" height="220" xmlns="http://www.w3.org/2000/svg" xmlns:xlink="http://www.w3.org/1999/xlink" overflow="hidden"><g><rect x="0" y="0" width="1280" height="720" fill="#FFFFFF"/><text font-family="Cascadia Code,Cascadia Code_MSFontService,sans-serif" font-weight="700" font-size="24" transform="translate(127.064 86)">1</text><text font-family="Cascadia Code,Cascadia Code_MSFontService,sans-serif" font-weight="700" font-size="24" transform="translate(213.288 86)">1</text><text font-family="Cascadia Code,Cascadia Code_MSFontService,sans-serif" font-weight="700" font-size="24" transform="translate(299.513 87)">1</text><text fill="#5B9BD5" font-family="Cascadia Code,Cascadia Code_MSFontService,sans-serif" font-weight="400" font-size="15" transform="translate(299.301 117)">2</text><text fill="#5B9BD5" font-family="Cascadia Code,Cascadia Code_MSFontService,sans-serif" font-weight="400" font-size="10" transform="translate(307.968 113)">0</text><text fill="#5B9BD5" font-family="Cascadia Code,Cascadia Code_MSFontService,sans-serif" font-weight="400" font-size="15" transform="translate(213.172 117)">2</text><text fill="#5B9BD5" font-family="Cascadia Code,Cascadia Code_MSFontService,sans-serif" font-weight="400" font-size="10" transform="translate(221.838 113)">1</text><text fill="#5B9BD5" font-family="Cascadia Code,Cascadia Code_MSFontService,sans-serif" font-weight="400" font-size="15" transform="translate(128.799 118)">2</text><text fill="#5B9BD5" font-family="Cascadia Code,Cascadia Code_MSFontService,sans-serif" font-weight="400" font-size="10" transform="translate(137.466 114)">2</text><path d="M199 97 241.317 97.0001" stroke="#000000" stroke-width="4" stroke-miterlimit="8" fill="none" fill-rule="evenodd"/><rect x="136.5" y="12.5001" width="70" height="35" stroke="#000000" stroke-linejoin="round" stroke-miterlimit="10" stroke-dasharray="4 3" fill="none"/><text font-family="Calibri,Calibri_MSFontService,sans-serif" font-weight="400" font-size="21" transform="translate(145.566 37)">1111</text><text font-family="Calibri,Calibri_MSFontService,sans-serif" font-weight="400" font-size="14" transform="translate(188.899 41)">2</text><path d="M112 96 154.317 96.0001" stroke="#000000" stroke-width="4" stroke-miterlimit="8" fill="none" fill-rule="evenodd"/><path d="M284 97 326.317 97.0001" stroke="#000000" stroke-width="4" stroke-miterlimit="8" fill="none" fill-rule="evenodd"/><text font-family="Cascadia Code,Cascadia Code_MSFontService,sans-serif" font-weight="400" font-size="19" transform="translate(102.226 156)">1 x</text><text fill="#5B9BD5" font-family="Cascadia Code,Cascadia Code_MSFontService,sans-serif" font-weight="400" font-size="19" transform="translate(146.226 156)">4</text><text font-family="Cascadia Code,Cascadia Code_MSFontService,sans-serif" font-weight="400" font-size="19" transform="translate(193.995 155)">1 x</text><text fill="#5B9BD5" font-family="Cascadia Code,Cascadia Code_MSFontService,sans-serif" font-weight="400" font-size="19" transform="translate(237.995 155)">2</text><text font-family="Cascadia Code,Cascadia Code_MSFontService,sans-serif" font-weight="400" font-size="19" transform="translate(285.731 156)">1 x</text><text fill="#5B9BD5" font-family="Cascadia Code,Cascadia Code_MSFontService,sans-serif" font-weight="400" font-size="19" transform="translate(329.731 156)">1</text><text font-family="Cascadia Code,Cascadia Code_MSFontService,sans-serif" font-weight="400" font-size="19" transform="translate(124.226 207)">4</text><text font-family="Cascadia Code,Cascadia Code_MSFontService,sans-serif" font-weight="400" font-size="19" transform="translate(215.995 206)">2</text><text font-family="Cascadia Code,Cascadia Code_MSFontService,sans-serif" font-weight="400" font-size="19" transform="translate(307.731 207)">1</text><path d="M0.333324-0.00249945 0.430212 12.9183-0.236436 12.9233-0.333324 0.00249945ZM4.08678 11.5575 0.146877 19.5873-3.913 11.6175Z" transform="matrix(-1 0 0 1 130.647 164.5)"/><path d="M0.333324-0.00249945 0.430212 12.9183-0.236436 12.9233-0.333324 0.00249945ZM4.08678 11.5575 0.146877 19.5873-3.913 11.6175Z" transform="matrix(-1 0 0 1 221.647 164.5)"/><path d="M0.333324-0.00249945 0.430212 12.9183-0.236436 12.9233-0.333324 0.00249945ZM4.08678 11.5575 0.146877 19.5873-3.913 11.6175Z" transform="matrix(-1 0 0 1 313.647 165.5)"/><text font-family="Cascadia Code,Cascadia Code_MSFontService,sans-serif" font-weight="400" font-size="19" transform="translate(169.15 207)">+</text><text font-family="Cascadia Code,Cascadia Code_MSFontService,sans-serif" font-weight="400" font-size="19" transform="translate(266.428 208)">+</text><text font-family="Cascadia Code,Cascadia Code_MSFontService,sans-serif" font-weight="400" font-size="19" transform="translate(367.083 208)">=</text><text font-family="Cascadia Code,Cascadia Code_MSFontService,sans-serif" font-weight="700" font-size="19" transform="translate(389.083 208)">15</text><text font-family="Cascadia Code,Cascadia Code_MSFontService,sans-serif" font-weight="700" font-size="12" transform="translate(411.083 212)">10</text><text font-family="Cascadia Code,Cascadia Code_MSFontService,sans-serif" font-weight="700" font-size="24" transform="translate(44.3468 86)">1</text><text fill="#5B9BD5" font-family="Cascadia Code,Cascadia Code_MSFontService,sans-serif" font-weight="400" font-size="15" transform="translate(46.0816 118)">2</text><text fill="#5B9BD5" font-family="Cascadia Code,Cascadia Code_MSFontService,sans-serif" font-weight="400" font-size="10" transform="translate(54.7482 114)">3</text><path d="M30 96 72.317 96.0001" stroke="#000000" stroke-width="4" stroke-miterlimit="8" fill="none" fill-rule="evenodd"/><text font-family="Cascadia Code,Cascadia Code_MSFontService,sans-serif" font-weight="400" font-size="19" transform="translate(17.5225 156)">1 x</text><text fill="#5B9BD5" font-family="Cascadia Code,Cascadia Code_MSFontService,sans-serif" font-weight="400" font-size="19" transform="translate(61.5225 156)">8</text><text font-family="Cascadia Code,Cascadia Code_MSFontService,sans-serif" font-weight="400" font-size="19" transform="translate(39.5225 207)">8</text><path d="M0.333324-0.00249945 0.430212 12.9183-0.236436 12.9233-0.333324 0.00249945ZM4.08678 11.5575 0.146877 19.5873-3.913 11.6175Z" transform="matrix(-1 0 0 1 45.6469 164.5)"/><text font-family="Cascadia Code,Cascadia Code_MSFontService,sans-serif" font-weight="400" font-size="19" transform="translate(86.6911 207)">+</text></g></svg>