<svg width="645" height="85" xmlns="http://www.w3.org/2000/svg" xmlns:xlink="http://www.w3.org/1999/xlink" overflow="hidden"><g><rect x="0" y="0" width="1280" height="720" fill="#FFFFFF"/><text font-family="Cascadia Code,Cascadia Code_MSFontService,sans-serif" font-weight="700" font-size="24" transform="translate(226.493 42)">1</text><text font-family="Cascadia Code,Cascadia Code_MSFontService,sans-serif" font-weight="700" font-size="24" transform="translate(312.717 42)">2</text><text font-family="Cascadia Code,Cascadia Code_MSFontService,sans-serif" font-weight="700" font-size="24" transform="translate(398.941 43)">3</text><text fill="#5B9BD5" font-family="Cascadia Code,Cascadia Code_MSFontService,sans-serif" font-weight="400" font-size="15" transform="translate(394.397 73)">10</text><text fill="#5B9BD5" font-family="Cascadia Code,Cascadia Code_MSFontService,sans-serif" font-weight="400" font-size="10" transform="translate(411.73 69)">0</text><text fill="#5B9BD5" font-family="Cascadia Code,Cascadia Code_MSFontService,sans-serif" font-weight="400" font-size="15" transform="translate(308.267 73)">10</text><text fill="#5B9BD5" font-family="Cascadia Code,Cascadia Code_MSFontService,sans-serif" font-weight="400" font-size="10" transform="translate(325.6 69)">1</text><text fill="#5B9BD5" font-family="Cascadia Code,Cascadia Code_MSFontService,sans-serif" font-weight="400" font-size="15" transform="translate(223.894 74)">10</text><text fill="#5B9BD5" font-family="Cascadia Code,Cascadia Code_MSFontService,sans-serif" font-weight="400" font-size="10" transform="translate(241.228 70)">2</text><path d="M298 53 340.317 53.0001" stroke="#000000" stroke-width="4" stroke-miterlimit="8" fill="none" fill-rule="evenodd"/><path d="M212 52 254.317 52.0001" stroke="#000000" stroke-width="4" stroke-miterlimit="8" fill="none" fill-rule="evenodd"/><path d="M384 53 426.317 53.0001" stroke="#000000" stroke-width="4" stroke-miterlimit="8" fill="none" fill-rule="evenodd"/><text font-family="Calibri,Calibri_MSFontService,sans-serif" font-style="italic" font-weight="400" font-size="15" transform="translate(485.165 39)">Least significant digit</text><text font-family="Calibri,Calibri_MSFontService,sans-serif" font-style="italic" font-weight="400" font-size="15" transform="translate(29.0033 39)">Most significant digit</text><path d="M165.5 34.1667 193.998 34.1668 193.998 34.8335 165.5 34.8334ZM192.665 30.5001 200.665 34.5002 192.665 38.5001Z"/><path d="M0.00360495-0.333314 26.8268-0.0432082 26.8196 0.62342-0.00360495 0.333314ZM25.5332-3.72408 33.4894 0.362205 25.4467 4.27545Z" transform="matrix(-1 0 0 1 475.99 34.5001)"/></g></svg>